<svg width="32" height="24" viewBox="0 0 32 24" fill="none" xmlns="http://www.w3.org/2000/svg">
  <rect width="32" height="24" rx="2" fill="#B22234"/>
  <rect y="1.846" width="32" height="1.846" fill="white"/>
  <rect y="5.538" width="32" height="1.846" fill="white"/>
  <rect y="9.231" width="32" height="1.846" fill="white"/>
  <rect y="12.923" width="32" height="1.846" fill="white"/>
  <rect y="16.615" width="32" height="1.846" fill="white"/>
  <rect y="20.308" width="32" height="1.846" fill="white"/>
  <rect width="12.8" height="12.923" fill="#3C3B6E"/>
  <g fill="white">
    <circle cx="2.133" cy="1.846" r="0.615"/>
    <circle cx="6.4" cy="1.846" r="0.615"/>
    <circle cx="10.667" cy="1.846" r="0.615"/>
    <circle cx="4.267" cy="3.692" r="0.615"/>
    <circle cx="8.533" cy="3.692" r="0.615"/>
    <circle cx="2.133" cy="5.538" r="0.615"/>
    <circle cx="6.4" cy="5.538" r="0.615"/>
    <circle cx="10.667" cy="5.538" r="0.615"/>
    <circle cx="4.267" cy="7.385" r="0.615"/>
    <circle cx="8.533" cy="7.385" r="0.615"/>
    <circle cx="2.133" cy="9.231" r="0.615"/>
    <circle cx="6.4" cy="9.231" r="0.615"/>
    <circle cx="10.667" cy="9.231" r="0.615"/>
    <circle cx="4.267" cy="11.077" r="0.615"/>
    <circle cx="8.533" cy="11.077" r="0.615"/>
  </g>
</svg>